STARTFONT 2.1
COMMENT Recovered from arc.ast's:TR8 AST (MIT CADR AST source recovered from ARC!!!)
FONT MIT-CADR-TR8
SIZE 10 72 72
FONTBOUNDINGBOX 16 10 0 -2
STARTPROPERTIES 2
FONT_ASCENT 8
FONT_DESCENT 2
ENDPROPERTIES
CHARS 95
STARTCHAR C0018
ENCODING -1 24
SWIDTH 0 0
DWIDTH 0 0
BBX 16 10 0 -2
BITMAP
0000
0000
0000
0000
0000
0000
0000
0000
0000
FFF0
ENDCHAR
STARTCHAR C0020
ENCODING -1 32
SWIDTH 400 0
DWIDTH 4 0
BBX 16 10 0 -2
BITMAP
0000
0000
0000
0000
0000
0000
0000
0000
0000
0000
ENDCHAR
STARTCHAR C0021
ENCODING -1 33
SWIDTH 300 0
DWIDTH 3 0
BBX 16 10 0 -2
BITMAP
0000
2000
2000
2000
2000
2000
0000
2000
0000
0000
ENDCHAR
STARTCHAR C0022
ENCODING -1 34
SWIDTH 500 0
DWIDTH 5 0
BBX 16 10 0 -2
BITMAP
0000
2800
2800
2800
0000
0000
0000
0000
0000
0000
ENDCHAR
STARTCHAR C0023
ENCODING -1 35
SWIDTH 900 0
DWIDTH 9 0
BBX 16 10 0 -2
BITMAP
0000
0500
0500
1F80
0A00
3F00
1400
1400
0000
0000
ENDCHAR
STARTCHAR C0024
ENCODING -1 36
SWIDTH 700 0
DWIDTH 7 0
BBX 16 10 0 -2
BITMAP
0800
1C00
2A00
2800
1C00
0A00
2A00
1C00
0800
0000
ENDCHAR
STARTCHAR C0025
ENCODING -1 37
SWIDTH 1100 0
DWIDTH 11 0
BBX 16 10 0 -2
BITMAP
0000
1100
2900
2A00
1240
02A0
04A0
0440
0000
0000
ENDCHAR
STARTCHAR C0026
ENCODING -1 38
SWIDTH 800 0
DWIDTH 8 0
BBX 16 10 0 -2
BITMAP
0000
0800
1400
0800
1900
2600
2400
1B00
0000
0000
ENDCHAR
STARTCHAR C0027
ENCODING -1 39
SWIDTH 300 0
DWIDTH 3 0
BBX 16 10 0 -2
BITMAP
0000
2000
2000
2000
0000
0000
0000
0000
0000
0000
ENDCHAR
STARTCHAR C0028
ENCODING -1 40
SWIDTH 500 0
DWIDTH 5 0
BBX 16 10 0 -2
BITMAP
0000
0800
1000
2000
2000
2000
2000
2000
1000
0800
ENDCHAR
STARTCHAR C0029
ENCODING -1 41
SWIDTH 500 0
DWIDTH 5 0
BBX 16 10 0 -2
BITMAP
0000
2000
1000
0800
0800
0800
0800
0800
1000
2000
ENDCHAR
STARTCHAR C002A
ENCODING -1 42
SWIDTH 700 0
DWIDTH 7 0
BBX 16 10 0 -2
BITMAP
0000
0800
2A00
1C00
2A00
0800
0000
0000
0000
0000
ENDCHAR
STARTCHAR C002B
ENCODING -1 43
SWIDTH 700 0
DWIDTH 7 0
BBX 16 10 0 -2
BITMAP
0000
0000
0800
0800
3E00
0800
0800
0000
0000
0000
ENDCHAR
STARTCHAR C002C
ENCODING -1 44
SWIDTH 400 0
DWIDTH 4 0
BBX 16 10 0 -2
BITMAP
0000
0000
0000
0000
0000
0000
3000
1000
1000
2000
ENDCHAR
STARTCHAR C002D
ENCODING -1 45
SWIDTH 600 0
DWIDTH 6 0
BBX 16 10 0 -2
BITMAP
0000
0000
0000
0000
3C00
0000
0000
0000
0000
0000
ENDCHAR
STARTCHAR C002E
ENCODING -1 46
SWIDTH 300 0
DWIDTH 3 0
BBX 16 10 0 -2
BITMAP
0000
0000
0000
0000
0000
0000
2000
2000
0000
0000
ENDCHAR
STARTCHAR C002F
ENCODING -1 47
SWIDTH 600 0
DWIDTH 6 0
BBX 16 10 0 -2
BITMAP
0000
0400
0400
0800
0800
1000
1000
2000
2000
0000
ENDCHAR
STARTCHAR C0030
ENCODING -1 48
SWIDTH 600 0
DWIDTH 6 0
BBX 16 10 0 -2
BITMAP
0000
1800
2400
2400
2400
2400
2400
1800
0000
0000
ENDCHAR
STARTCHAR C0031
ENCODING -1 49
SWIDTH 600 0
DWIDTH 6 0
BBX 16 10 0 -2
BITMAP
0000
0800
1800
0800
0800
0800
0800
1C00
0000
0000
ENDCHAR
STARTCHAR C0032
ENCODING -1 50
SWIDTH 600 0
DWIDTH 6 0
BBX 16 10 0 -2
BITMAP
0000
1800
2400
0400
0800
1000
2400
3C00
0000
0000
ENDCHAR
STARTCHAR C0033
ENCODING -1 51
SWIDTH 600 0
DWIDTH 6 0
BBX 16 10 0 -2
BITMAP
0000
1800
2400
0400
1800
0400
2400
1800
0000
0000
ENDCHAR
STARTCHAR C0034
ENCODING -1 52
SWIDTH 600 0
DWIDTH 6 0
BBX 16 10 0 -2
BITMAP
0000
0800
1800
2800
4800
7C00
0800
0800
0000
0000
ENDCHAR
STARTCHAR C0035
ENCODING -1 53
SWIDTH 600 0
DWIDTH 6 0
BBX 16 10 0 -2
BITMAP
0000
1C00
1000
3800
2400
0400
2400
1800
0000
0000
ENDCHAR
STARTCHAR C0036
ENCODING -1 54
SWIDTH 600 0
DWIDTH 6 0
BBX 16 10 0 -2
BITMAP
0000
1C00
2000
3800
2400
2400
2400
1800
0000
0000
ENDCHAR
STARTCHAR C0037
ENCODING -1 55
SWIDTH 600 0
DWIDTH 6 0
BBX 16 10 0 -2
BITMAP
0000
3C00
2400
0800
0800
0800
1000
1000
0000
0000
ENDCHAR
STARTCHAR C0038
ENCODING -1 56
SWIDTH 600 0
DWIDTH 6 0
BBX 16 10 0 -2
BITMAP
0000
1800
2400
2400
1800
2400
2400
1800
0000
0000
ENDCHAR
STARTCHAR C0039
ENCODING -1 57
SWIDTH 600 0
DWIDTH 6 0
BBX 16 10 0 -2
BITMAP
0000
1800
2400
2400
2400
1C00
0400
1800
0000
0000
ENDCHAR
STARTCHAR C003A
ENCODING -1 58
SWIDTH 300 0
DWIDTH 3 0
BBX 16 10 0 -2
BITMAP
0000
0000
0000
2000
2000
0000
2000
2000
0000
0000
ENDCHAR
STARTCHAR C003B
ENCODING -1 59
SWIDTH 400 0
DWIDTH 4 0
BBX 16 10 0 -2
BITMAP
0000
0000
0000
1000
1000
0000
3000
1000
1000
2000
ENDCHAR
STARTCHAR C003C
ENCODING -1 60
SWIDTH 600 0
DWIDTH 6 0
BBX 16 10 0 -2
BITMAP
0000
0400
0800
1000
2000
1000
0800
0400
0000
0000
ENDCHAR
STARTCHAR C003D
ENCODING -1 61
SWIDTH 600 0
DWIDTH 6 0
BBX 16 10 0 -2
BITMAP
0000
0000
0000
0000
3C00
0000
3C00
0000
0000
0000
ENDCHAR
STARTCHAR C003E
ENCODING -1 62
SWIDTH 600 0
DWIDTH 6 0
BBX 16 10 0 -2
BITMAP
0000
2000
1000
0800
0400
0800
1000
2000
0000
0000
ENDCHAR
STARTCHAR C003F
ENCODING -1 63
SWIDTH 600 0
DWIDTH 6 0
BBX 16 10 0 -2
BITMAP
0000
1800
2400
0400
0800
1000
0000
1000
0000
0000
ENDCHAR
STARTCHAR C0040
ENCODING -1 64
SWIDTH 1000 0
DWIDTH 10 0
BBX 16 10 0 -2
BITMAP
0000
0F00
1080
2640
2940
2940
2680
1000
0F80
0000
ENDCHAR
STARTCHAR C0041
ENCODING -1 65
SWIDTH 800 0
DWIDTH 8 0
BBX 16 10 0 -2
BITMAP
0000
0800
0800
1400
1400
3E00
2200
7700
0000
0000
ENDCHAR
STARTCHAR C0042
ENCODING -1 66
SWIDTH 700 0
DWIDTH 7 0
BBX 16 10 0 -2
BITMAP
0000
7C00
2200
2200
3C00
2200
2200
7C00
0000
0000
ENDCHAR
STARTCHAR C0043
ENCODING -1 67
SWIDTH 700 0
DWIDTH 7 0
BBX 16 10 0 -2
BITMAP
0000
1E00
2200
4000
4000
4000
2200
1C00
0000
0000
ENDCHAR
STARTCHAR C0044
ENCODING -1 68
SWIDTH 800 0
DWIDTH 8 0
BBX 16 10 0 -2
BITMAP
0000
7C00
2200
2100
2100
2100
2200
7C00
0000
0000
ENDCHAR
STARTCHAR C0045
ENCODING -1 69
SWIDTH 700 0
DWIDTH 7 0
BBX 16 10 0 -2
BITMAP
0000
7C00
2200
2800
3800
2800
2200
7C00
0000
0000
ENDCHAR
STARTCHAR C0046
ENCODING -1 70
SWIDTH 700 0
DWIDTH 7 0
BBX 16 10 0 -2
BITMAP
0000
7C00
2200
2800
3800
2800
2000
7000
0000
0000
ENDCHAR
STARTCHAR C0047
ENCODING -1 71
SWIDTH 800 0
DWIDTH 8 0
BBX 16 10 0 -2
BITMAP
0000
1E00
2200
4000
4700
4200
2200
1C00
0000
0000
ENDCHAR
STARTCHAR C0048
ENCODING -1 72
SWIDTH 800 0
DWIDTH 8 0
BBX 16 10 0 -2
BITMAP
0000
7700
2200
2200
3E00
2200
2200
7700
0000
0000
ENDCHAR
STARTCHAR C0049
ENCODING -1 73
SWIDTH 400 0
DWIDTH 4 0
BBX 16 10 0 -2
BITMAP
0000
7000
2000
2000
2000
2000
2000
7000
0000
0000
ENDCHAR
STARTCHAR C004A
ENCODING -1 74
SWIDTH 500 0
DWIDTH 5 0
BBX 16 10 0 -2
BITMAP
0000
3800
1000
1000
1000
1000
5000
6000
0000
0000
ENDCHAR
STARTCHAR C004B
ENCODING -1 75
SWIDTH 800 0
DWIDTH 8 0
BBX 16 10 0 -2
BITMAP
0000
7600
2400
2800
3800
2C00
2600
7300
0000
0000
ENDCHAR
STARTCHAR C004C
ENCODING -1 76
SWIDTH 700 0
DWIDTH 7 0
BBX 16 10 0 -2
BITMAP
0000
7000
2000
2000
2000
2000
2200
7C00
0000
0000
ENDCHAR
STARTCHAR C004D
ENCODING -1 77
SWIDTH 1000 0
DWIDTH 10 0
BBX 16 10 0 -2
BITMAP
0000
60C0
3180
3180
2A80
2A80
2480
75C0
0000
0000
ENDCHAR
STARTCHAR C004E
ENCODING -1 78
SWIDTH 900 0
DWIDTH 9 0
BBX 16 10 0 -2
BITMAP
0000
7380
3100
2900
2900
2500
2700
7300
0000
0000
ENDCHAR
STARTCHAR C004F
ENCODING -1 79
SWIDTH 800 0
DWIDTH 8 0
BBX 16 10 0 -2
BITMAP
0000
1C00
2200
4100
4100
4100
2200
1C00
0000
0000
ENDCHAR
STARTCHAR C0050
ENCODING -1 80
SWIDTH 700 0
DWIDTH 7 0
BBX 16 10 0 -2
BITMAP
0000
7C00
2200
2200
3C00
2000
2000
7000
0000
0000
ENDCHAR
STARTCHAR C0051
ENCODING -1 81
SWIDTH 800 0
DWIDTH 8 0
BBX 16 10 0 -2
BITMAP
0000
1C00
2200
4100
4100
4100
2200
1C00
0800
0600
ENDCHAR
STARTCHAR C0052
ENCODING -1 82
SWIDTH 700 0
DWIDTH 7 0
BBX 16 10 0 -2
BITMAP
0000
7800
2400
2400
3800
2800
2400
7600
0000
0000
ENDCHAR
STARTCHAR C0053
ENCODING -1 83
SWIDTH 500 0
DWIDTH 5 0
BBX 16 10 0 -2
BITMAP
0000
3800
4800
4000
3000
0800
4800
7000
0000
0000
ENDCHAR
STARTCHAR C0054
ENCODING -1 84
SWIDTH 600 0
DWIDTH 6 0
BBX 16 10 0 -2
BITMAP
0000
7C00
5400
1000
1000
1000
1000
3800
0000
0000
ENDCHAR
STARTCHAR C0055
ENCODING -1 85
SWIDTH 800 0
DWIDTH 8 0
BBX 16 10 0 -2
BITMAP
0000
7700
2200
2200
2200
2200
2200
1C00
0000
0000
ENDCHAR
STARTCHAR C0056
ENCODING -1 86
SWIDTH 800 0
DWIDTH 8 0
BBX 16 10 0 -2
BITMAP
0000
7700
2200
2200
1400
1400
0800
0800
0000
0000
ENDCHAR
STARTCHAR C0057
ENCODING -1 87
SWIDTH 1200 0
DWIDTH 12 0
BBX 16 10 0 -2
BITMAP
0000
7770
2220
2220
1740
1540
0880
0880
0000
0000
ENDCHAR
STARTCHAR C0058
ENCODING -1 88
SWIDTH 800 0
DWIDTH 8 0
BBX 16 10 0 -2
BITMAP
0000
7700
2200
1400
0800
1400
2200
7700
0000
0000
ENDCHAR
STARTCHAR C0059
ENCODING -1 89
SWIDTH 800 0
DWIDTH 8 0
BBX 16 10 0 -2
BITMAP
0000
7700
2200
1400
1400
0800
0800
1C00
0000
0000
ENDCHAR
STARTCHAR C005A
ENCODING -1 90
SWIDTH 600 0
DWIDTH 6 0
BBX 16 10 0 -2
BITMAP
0000
7C00
4400
0800
1000
2000
4400
7C00
0000
0000
ENDCHAR
STARTCHAR C005B
ENCODING -1 91
SWIDTH 500 0
DWIDTH 5 0
BBX 16 10 0 -2
BITMAP
0000
3800
2000
2000
2000
2000
2000
2000
2000
3800
ENDCHAR
STARTCHAR C005C
ENCODING -1 92
SWIDTH 600 0
DWIDTH 6 0
BBX 16 10 0 -2
BITMAP
0000
2000
2000
1000
1000
0800
0800
0400
0400
0000
ENDCHAR
STARTCHAR C005D
ENCODING -1 93
SWIDTH 500 0
DWIDTH 5 0
BBX 16 10 0 -2
BITMAP
0000
3800
0800
0800
0800
0800
0800
0800
0800
3800
ENDCHAR
STARTCHAR C005E
ENCODING -1 94
SWIDTH 700 0
DWIDTH 7 0
BBX 16 10 0 -2
BITMAP
0000
0000
0800
1C00
2A00
0800
0800
0800
0000
0000
ENDCHAR
STARTCHAR C005F
ENCODING -1 95
SWIDTH 800 0
DWIDTH 8 0
BBX 16 10 0 -2
BITMAP
0000
0000
0800
1000
3F00
1000
0800
0000
0000
0000
ENDCHAR
STARTCHAR C0061
ENCODING -1 97
SWIDTH 500 0
DWIDTH 5 0
BBX 16 10 0 -2
BITMAP
0000
0000
0000
3800
0800
3800
4800
3C00
0000
0000
ENDCHAR
STARTCHAR C0062
ENCODING -1 98
SWIDTH 600 0
DWIDTH 6 0
BBX 16 10 0 -2
BITMAP
0000
6000
2000
3800
2400
2400
2400
1800
0000
0000
ENDCHAR
STARTCHAR C0063
ENCODING -1 99
SWIDTH 500 0
DWIDTH 5 0
BBX 16 10 0 -2
BITMAP
0000
0000
0000
3000
4800
4000
4800
3000
0000
0000
ENDCHAR
STARTCHAR C0064
ENCODING -1 100
SWIDTH 600 0
DWIDTH 6 0
BBX 16 10 0 -2
BITMAP
0000
1800
0800
3800
4800
4800
4800
3400
0000
0000
ENDCHAR
STARTCHAR C0065
ENCODING -1 101
SWIDTH 500 0
DWIDTH 5 0
BBX 16 10 0 -2
BITMAP
0000
0000
0000
3000
4800
7800
4000
3800
0000
0000
ENDCHAR
STARTCHAR C0066
ENCODING -1 102
SWIDTH 400 0
DWIDTH 4 0
BBX 16 10 0 -2
BITMAP
0000
1800
2000
7000
2000
2000
2000
7000
0000
0000
ENDCHAR
STARTCHAR C0067
ENCODING -1 103
SWIDTH 600 0
DWIDTH 6 0
BBX 16 10 0 -2
BITMAP
0000
0000
0000
3400
4800
3000
4000
3800
4400
3800
ENDCHAR
STARTCHAR C0068
ENCODING -1 104
SWIDTH 700 0
DWIDTH 7 0
BBX 16 10 0 -2
BITMAP
0000
6000
2000
3800
2400
2400
2400
7600
0000
0000
ENDCHAR
STARTCHAR C0069
ENCODING -1 105
SWIDTH 400 0
DWIDTH 4 0
BBX 16 10 0 -2
BITMAP
0000
2000
0000
6000
2000
2000
2000
7000
0000
0000
ENDCHAR
STARTCHAR C006A
ENCODING -1 106
SWIDTH 400 0
DWIDTH 4 0
BBX 16 10 0 -2
BITMAP
0000
1000
0000
3000
1000
1000
1000
1000
5000
6000
ENDCHAR
STARTCHAR C006B
ENCODING -1 107
SWIDTH 600 0
DWIDTH 6 0
BBX 16 10 0 -2
BITMAP
0000
6000
2000
2C00
2800
3000
2800
6C00
0000
0000
ENDCHAR
STARTCHAR C006C
ENCODING -1 108
SWIDTH 400 0
DWIDTH 4 0
BBX 16 10 0 -2
BITMAP
0000
6000
2000
2000
2000
2000
2000
7000
0000
0000
ENDCHAR
STARTCHAR C006D
ENCODING -1 109
SWIDTH 800 0
DWIDTH 8 0
BBX 16 10 0 -2
BITMAP
0000
0000
0000
7600
2A00
2A00
2A00
6B00
0000
0000
ENDCHAR
STARTCHAR C006E
ENCODING -1 110
SWIDTH 700 0
DWIDTH 7 0
BBX 16 10 0 -2
BITMAP
0000
0000
0000
7800
2400
2400
2400
7600
0000
0000
ENDCHAR
STARTCHAR C006F
ENCODING -1 111
SWIDTH 500 0
DWIDTH 5 0
BBX 16 10 0 -2
BITMAP
0000
0000
0000
3000
4800
4800
4800
3000
0000
0000
ENDCHAR
STARTCHAR C0070
ENCODING -1 112
SWIDTH 600 0
DWIDTH 6 0
BBX 16 10 0 -2
BITMAP
0000
0000
0000
7800
2400
2400
2400
3800
2000
7000
ENDCHAR
STARTCHAR C0071
ENCODING -1 113
SWIDTH 600 0
DWIDTH 6 0
BBX 16 10 0 -2
BITMAP
0000
0000
0000
3800
4800
4800
4800
3800
0800
1C00
ENDCHAR
STARTCHAR C0072
ENCODING -1 114
SWIDTH 500 0
DWIDTH 5 0
BBX 16 10 0 -2
BITMAP
0000
0000
0000
7800
2800
2000
2000
7000
0000
0000
ENDCHAR
STARTCHAR C0073
ENCODING -1 115
SWIDTH 600 0
DWIDTH 6 0
BBX 16 10 0 -2
BITMAP
0000
0000
0000
3800
2000
1000
0800
3800
0000
0000
ENDCHAR
STARTCHAR C0074
ENCODING -1 116
SWIDTH 400 0
DWIDTH 4 0
BBX 16 10 0 -2
BITMAP
0000
0000
2000
7000
2000
2000
2000
3000
0000
0000
ENDCHAR
STARTCHAR C0075
ENCODING -1 117
SWIDTH 700 0
DWIDTH 7 0
BBX 16 10 0 -2
BITMAP
0000
0000
0000
6C00
2400
2400
2400
3E00
0000
0000
ENDCHAR
STARTCHAR C0076
ENCODING -1 118
SWIDTH 600 0
DWIDTH 6 0
BBX 16 10 0 -2
BITMAP
0000
0000
0000
6C00
2800
2800
1000
1000
0000
0000
ENDCHAR
STARTCHAR C0077
ENCODING -1 119
SWIDTH 800 0
DWIDTH 8 0
BBX 16 10 0 -2
BITMAP
0000
0000
0000
6B00
2A00
2A00
1400
1400
0000
0000
ENDCHAR
STARTCHAR C0078
ENCODING -1 120
SWIDTH 600 0
DWIDTH 6 0
BBX 16 10 0 -2
BITMAP
0000
0000
0000
6C00
2800
1000
2800
6C00
0000
0000
ENDCHAR
STARTCHAR C0079
ENCODING -1 121
SWIDTH 600 0
DWIDTH 6 0
BBX 16 10 0 -2
BITMAP
0000
0000
0000
6C00
2800
2800
1000
1000
5000
2000
ENDCHAR
STARTCHAR C007A
ENCODING -1 122
SWIDTH 500 0
DWIDTH 5 0
BBX 16 10 0 -2
BITMAP
0000
0000
0000
7800
1000
2000
4800
7800
0000
0000
ENDCHAR
STARTCHAR C007B
ENCODING -1 123
SWIDTH 500 0
DWIDTH 5 0
BBX 16 10 0 -2
BITMAP
0000
0800
1000
1000
1000
2000
1000
1000
1000
0800
ENDCHAR
STARTCHAR C007C
ENCODING -1 124
SWIDTH 300 0
DWIDTH 3 0
BBX 16 10 0 -2
BITMAP
0000
2000
2000
2000
2000
2000
2000
2000
2000
2000
ENDCHAR
STARTCHAR C007D
ENCODING -1 125
SWIDTH 500 0
DWIDTH 5 0
BBX 16 10 0 -2
BITMAP
0000
2000
1000
1000
1000
0800
1000
1000
1000
2000
ENDCHAR
STARTCHAR C007E
ENCODING -1 126
SWIDTH 800 0
DWIDTH 8 0
BBX 16 10 0 -2
BITMAP
0000
0000
0000
1900
2600
0000
0000
0000
0000
0000
ENDCHAR
ENDFONT
